<svg width="53" height="16" viewBox="0 0 53 16" fill="none" xmlns="http://www.w3.org/2000/svg">
<g filter="url(#filter0_d_146_67)">
<path d="M50.1996 6.86004L49.7546 6.98017C49.3319 5.53852 48.6222 4.92093 47.6211 4.92093C46.918 4.92093 46.4197 5.38368 46.4197 6.1223C46.4197 6.82533 46.9981 7.20354 48.5706 7.83849C50.018 8.37065 50.6183 9.02207 50.6183 10.1611C50.6183 11.8942 49.2567 12.9813 47.0204 12.9813C45.9449 12.9813 44.7267 12.741 44.0401 12.4664L43.9542 10.0584L44.3769 9.97249C45.0119 11.6201 45.8244 12.2435 46.882 12.2435C47.7973 12.2435 48.2778 11.6086 48.2778 10.9563C48.2778 10.304 47.9058 9.92666 46.4758 9.41229C45.1142 8.966 44.182 8.38267 44.182 6.93523C44.182 5.51138 45.4346 4.30378 47.5637 4.30378C48.5706 4.30378 49.4859 4.47553 50.0866 4.75007L50.1996 6.86004ZM40.989 7.61512C41.0407 6.48272 40.8111 4.84662 39.8793 4.84662C38.924 4.84662 38.3976 6.37415 38.3807 7.68409L40.989 7.61512ZM40.108 4.29755C42.4529 4.29755 43.5858 6.01373 43.6031 8.26742H38.3242C38.3064 10.2639 39.3654 11.7737 41.3446 11.7737C42.2078 11.7737 42.7061 11.5334 43.2321 11.1561L43.4781 11.4306C42.8997 12.2199 41.6983 12.9746 40.0965 12.9746C37.5224 12.9746 35.7377 11.2072 35.7377 8.71282C35.7319 6.45913 37.1963 4.29666 40.108 4.29666M32.5002 8.47255C32.4486 6.69273 31.7972 5.27511 30.5438 5.27511C30.2456 5.27511 30.0174 5.32673 29.6628 5.44686L29.7651 12.3054C29.891 12.357 30.1878 12.3913 30.4 12.3913C31.6183 12.3913 32.4993 10.6693 32.4993 8.47299M35.1134 8.33951C35.1134 11.1596 33.3336 12.9786 30.3142 12.9786C29.2387 12.9786 28.1232 12.8068 27.1568 12.5839C27.2427 11.4515 27.2427 4.43816 27.1568 3.11664C27.0709 2.43008 26.8765 2.10393 26.3443 2.03541L25.9897 2.00115V1.68656L29.7139 1C29.6961 1.57844 29.6623 3.11664 29.6623 4.91826C30.3146 4.59211 30.9149 4.40345 31.7269 4.40345C33.666 4.40345 35.1085 6.05111 35.1085 8.33906M25.631 6.80753C24.4813 6.05245 23.2461 6.3786 22.9996 6.80753C22.891 8.12904 22.9137 10.1598 23.0174 11.2063C23.069 11.8929 23.2634 12.1844 23.7952 12.236L24.4982 12.3045V12.7508H19.2375V12.3045L19.6437 12.236C20.1528 12.1844 20.3303 11.8933 20.3646 11.2063C20.4905 10.0908 20.5247 7.75128 20.3646 6.46403C20.3303 5.72629 20.1528 5.45131 19.6437 5.38279L19.2375 5.33118V5.02238L22.9956 4.30155L22.944 6.22375C23.825 4.23303 25.5754 3.99276 26.5249 4.52492L25.631 6.80753ZM13.2983 8.64964C13.2983 10.7489 13.8647 12.4651 15.0087 12.4651C16.2443 12.4651 16.5989 10.7832 16.5989 8.64964C16.5989 6.51609 16.0499 4.85152 14.8885 4.85152C13.6427 4.85152 13.2983 6.48183 13.2983 8.64964ZM19.2589 8.61538C19.2589 11.0235 17.6686 12.9759 14.8316 12.9759C12.0399 12.9759 10.633 11.1169 10.633 8.6799C10.633 6.28872 12.2233 4.29799 15.0603 4.29799C17.8519 4.29799 19.2589 6.16858 19.2589 8.61093M11.9527 4.4693L11.3743 4.64105C10.8822 2.95335 10.0127 1.99269 8.51412 1.99269H6.55766C6.44909 3.11397 6.39747 4.84707 6.44909 6.7181L7.7528 6.64957C8.63381 6.64957 9.00535 6.01462 9.22115 5.09224H9.71327V8.99359H9.21269C9.0009 8.05029 8.63426 7.40955 7.74435 7.35749L6.44064 7.3397C6.44064 8.72973 6.45843 9.91954 6.5492 10.6404C6.63508 11.67 6.92119 12.139 7.67627 12.2364L8.38553 12.3049V12.7512H2V12.3049L2.53216 12.2364C3.2699 12.1341 3.57336 11.67 3.65923 10.6404C3.80162 8.95844 3.83721 5.36633 3.65923 3.36982C3.57336 2.30193 3.27034 1.877 2.53216 1.79113L2 1.70525V1.2425H11.9403L11.9527 4.4693Z" fill="white"/>
</g>
<defs>
<filter id="filter0_d_146_67" x="0" y="0" width="52.6183" height="15.9813" filterUnits="userSpaceOnUse" color-interpolation-filters="sRGB">
<feFlood flood-opacity="0" result="BackgroundImageFix"/>
<feColorMatrix in="SourceAlpha" type="matrix" values="0 0 0 0 0 0 0 0 0 0 0 0 0 0 0 0 0 0 127 0" result="hardAlpha"/>
<feOffset dy="1"/>
<feGaussianBlur stdDeviation="1"/>
<feComposite in2="hardAlpha" operator="out"/>
<feColorMatrix type="matrix" values="0 0 0 0 0 0 0 0 0 0 0 0 0 0 0 0 0 0 0.2 0"/>
<feBlend mode="normal" in2="BackgroundImageFix" result="effect1_dropShadow_146_67"/>
<feBlend mode="normal" in="SourceGraphic" in2="effect1_dropShadow_146_67" result="shape"/>
</filter>
</defs>
</svg>
